<svg width="24" height="24" fill="none" xmlns="http://www.w3.org/2000/svg"><path d="M13.36 7.6h-.5c0 .28.23.5.5.5v-.5Zm0-3.2h.5-.5ZM10.77 2v-.5a.5.5 0 0 0-.45.28l.45.22ZM7.32 9.2l-.45-.22a.5.5 0 0 0-.05.22h.5Zm0 8.8h-.5c0 .28.22.5.5.5V18Zm9.74 0v-.5.5Zm1.73-1.36-.5-.08.5.08Zm1.2-7.2.48.08-.49-.08ZM18.24 7.6v.5-.5ZM7.32 18v.5a.5.5 0 0 0 .5-.5h-.5Zm0-8.8h.5a.5.5 0 0 0-.5-.5v.5Zm6.54-1.6V4.4h-1v3.2h1Zm0-3.2c0-1.64-1.42-2.9-3.09-2.9v1c1.2 0 2.1.89 2.1 1.9h1Zm-3.54-2.62-3.45 7.2.9.44 3.45-7.2-.9-.44ZM6.82 9.2V18h1V9.2h-1Zm.5 9.3h9.74v-1H7.32v1Zm9.74 0a2.2 2.2 0 0 0 2.22-1.78l-.98-.16c-.09.52-.59.95-1.23.94l-.01 1Zm2.22-1.78 1.2-7.2-1-.16-1.18 7.2.98.16Zm1.2-7.2c.1-.62-.1-1.25-.54-1.71l-.73.68c.23.25.33.56.28.87l.98.16Zm-.54-1.71a2.29 2.29 0 0 0-1.7-.71l.02 1c.37 0 .72.14.95.4l.73-.7Zm-1.69-.71h-4.89v1h4.9v-1ZM7.32 17.5h-2.6v1h2.6v-1Zm-2.6 0c-.7 0-1.22-.53-1.22-1.1h-1c0 1.2 1.03 2.1 2.23 2.1v-1ZM3.5 16.4v-5.6h-1v5.6h1Zm0-5.6c0-.57.51-1.1 1.23-1.1v-1c-1.2 0-2.23.9-2.23 2.1h1Zm1.23-1.1h2.59v-1h-2.6v1Zm2.09-.5V18h1V9.2h-1Z" fill="#FF6C00"/></svg>